<svg version="1.1" viewBox="0.0 0.0 960.0 540.0" fill="none" stroke="none" stroke-linecap="square" stroke-miterlimit="10" xmlns:xlink="http://www.w3.org/1999/xlink" xmlns="http://www.w3.org/2000/svg"><clipPath id="g10efdb8bd55_0_121.0"><path d="m0 0l960.0 0l0 540.0l-960.0 0l0 -540.0z" clip-rule="nonzero"/></clipPath><g clip-path="url(#g10efdb8bd55_0_121.0)"><path fill="#ffffff" d="m0 0l960.0 0l0 540.0l-960.0 0z" fill-rule="evenodd"/><path fill="#000000" d="m404.51932 276.2362l22.614166 -22.614166l22.614197 22.614166l-22.614197 22.614197z" fill-rule="evenodd"/><path fill="#000000" d="m427.14673 253.60881l22.614197 -22.614182l22.614166 22.614182l-22.614166 22.614151z" fill-rule="evenodd"/><path fill="#000000" d="m449.77417 230.98138l22.614166 -22.614166l22.614166 22.614166l-22.614166 22.614182z" fill-rule="evenodd"/><path fill="#000000" d="m472.40158 253.60881l22.614166 -22.614182l22.614197 22.614182l-22.614197 22.614151z" fill-rule="evenodd"/><path fill="#000000" d="m495.029 276.2362l22.614197 -22.614166l22.614136 22.614166l-22.614136 22.614197z" fill-rule="evenodd"/><path fill="#000000" d="m472.40158 298.86365l22.614166 -22.614197l22.614197 22.614197l-22.614197 22.614166z" fill-rule="evenodd"/><path fill="#000000" d="m449.77417 321.49106l22.614166 -22.614166l22.614166 22.614166l-22.614166 22.614166z" fill-rule="evenodd"/><path fill="#000000" d="m427.14673 298.86365l22.614197 -22.614197l22.614166 22.614197l-22.614166 22.614166z" fill-rule="evenodd"/><path fill="#000000" d="m381.8919 208.35397l22.614166 -22.614182l22.614166 22.614182l-22.614166 22.614166z" fill-rule="evenodd"/><path fill="#000000" d="m359.2645 185.72655l22.614166 -22.614166l22.614166 22.614166l-22.614166 22.614182z" fill-rule="evenodd"/><path fill="#000000" d="m336.6371 163.09914l22.614166 -22.614182l22.614166 22.614182l-22.614166 22.614166z" fill-rule="evenodd"/><path fill="#000000" d="m562.91125 389.3733l22.614136 -22.614166l22.614197 22.614166l-22.614197 22.614197z" fill-rule="evenodd"/><path fill="#000000" d="m540.2838 366.74588l22.614197 -22.614166l22.614136 22.614166l-22.614136 22.614197z" fill-rule="evenodd"/><path fill="#000000" d="m517.65643 344.11847l22.614136 -22.614166l22.614197 22.614166l-22.614197 22.614166z" fill-rule="evenodd"/><path fill="#000000" d="m517.65643 208.35397l22.614136 -22.614182l22.614197 22.614182l-22.614197 22.614166z" fill-rule="evenodd"/><path fill="#000000" d="m540.2838 185.72655l22.614197 -22.614166l22.614136 22.614166l-22.614136 22.614182z" fill-rule="evenodd"/><path fill="#000000" d="m562.91125 163.09914l22.614136 -22.614182l22.614197 22.614182l-22.614197 22.614166z" fill-rule="evenodd"/><path fill="#000000" d="m381.8919 344.11847l22.614166 -22.614166l22.614166 22.614166l-22.614166 22.614166z" fill-rule="evenodd"/><path fill="#000000" d="m359.2645 366.74588l22.614166 -22.614166l22.614166 22.614166l-22.614166 22.614197z" fill-rule="evenodd"/><path fill="#000000" d="m336.6371 389.3733l22.614166 -22.614166l22.614166 22.614166l-22.614166 22.614197z" fill-rule="evenodd"/><path fill="#000000" d="m449.77417 366.74588l22.614166 -22.614166l22.614166 22.614166l-22.614166 22.614197z" fill-rule="evenodd"/><path fill="#000000" d="m472.40158 389.3733l22.614166 -22.614166l22.614197 22.614166l-22.614197 22.614197z" fill-rule="evenodd"/><path fill="#000000" d="m495.029 412.00073l22.614197 -22.614197l22.614136 22.614197l-22.614136 22.614166z" fill-rule="evenodd"/><path fill="#000000" d="m517.65643 434.62814l22.614136 -22.614166l22.614197 22.614166l-22.614197 22.614166z" fill-rule="evenodd"/><path fill="#000000" d="m540.2838 457.25555l22.614197 -22.614166l22.614136 22.614166l-22.614136 22.614166z" fill-rule="evenodd"/><path fill="#000000" d="m540.2838 276.2362l22.614197 -22.614166l22.614136 22.614166l-22.614136 22.614197z" fill-rule="evenodd"/><path fill="#000000" d="m562.91125 298.86365l22.614136 -22.614197l22.614197 22.614197l-22.614197 22.614166z" fill-rule="evenodd"/><path fill="#000000" d="m585.53864 321.49106l22.614197 -22.614166l22.614197 22.614166l-22.614197 22.614166z" fill-rule="evenodd"/><path fill="#000000" d="m608.1661 344.11847l22.614197 -22.614166l22.614136 22.614166l-22.614136 22.614166z" fill-rule="evenodd"/><path fill="#000000" d="m630.7935 366.74588l22.614136 -22.614166l22.614197 22.614166l-22.614197 22.614197z" fill-rule="evenodd"/><path fill="#000000" d="m359.2645 95.21688l22.614166 -22.614166l22.614166 22.614166l-22.614166 22.614174z" fill-rule="evenodd"/><path fill="#000000" d="m381.8919 117.8443l22.614166 -22.614174l22.614166 22.614174l-22.614166 22.614182z" fill-rule="evenodd"/><path fill="#000000" d="m404.51932 140.47173l22.614166 -22.614182l22.614197 22.614182l-22.614197 22.614166z" fill-rule="evenodd"/><path fill="#000000" d="m427.14673 163.09914l22.614197 -22.614182l22.614166 22.614182l-22.614166 22.614166z" fill-rule="evenodd"/><path fill="#000000" d="m449.77417 185.72655l22.614166 -22.614166l22.614166 22.614166l-22.614166 22.614182z" fill-rule="evenodd"/><path fill="#000000" d="m268.75482 185.72655l22.614166 -22.614166l22.614166 22.614166l-22.614166 22.614182z" fill-rule="evenodd"/><path fill="#000000" d="m291.38223 208.35397l22.614166 -22.614182l22.614197 22.614182l-22.614197 22.614166z" fill-rule="evenodd"/><path fill="#000000" d="m314.00964 230.98138l22.614197 -22.614166l22.614166 22.614166l-22.614166 22.614182z" fill-rule="evenodd"/><path fill="#000000" d="m336.6371 253.60881l22.614166 -22.614182l22.614166 22.614182l-22.614166 22.614151z" fill-rule="evenodd"/><path fill="#000000" d="m359.2645 276.2362l22.614166 -22.614166l22.614166 22.614166l-22.614166 22.614197z" fill-rule="evenodd"/><path fill="#000000" d="m562.91125 253.60881l22.614136 -22.614182l22.614197 22.614182l-22.614197 22.614151z" fill-rule="evenodd"/><path fill="#000000" d="m585.53864 230.98138l22.614197 -22.614166l22.614197 22.614166l-22.614197 22.614182z" fill-rule="evenodd"/><path fill="#000000" d="m608.1661 208.35397l22.614197 -22.614182l22.614136 22.614182l-22.614136 22.614166z" fill-rule="evenodd"/><path fill="#000000" d="m630.7935 185.72655l22.614136 -22.614166l22.614197 22.614166l-22.614197 22.614182z" fill-rule="evenodd"/><path fill="#000000" d="m472.40158 163.09914l22.614166 -22.614182l22.614197 22.614182l-22.614197 22.614166z" fill-rule="evenodd"/><path fill="#000000" d="m495.029 140.47173l22.614197 -22.614182l22.614136 22.614182l-22.614136 22.614166z" fill-rule="evenodd"/><path fill="#000000" d="m517.65643 117.8443l22.614136 -22.614174l22.614197 22.614174l-22.614197 22.614182z" fill-rule="evenodd"/><path fill="#000000" d="m540.2838 95.21688l22.614197 -22.614166l22.614136 22.614166l-22.614136 22.614174z" fill-rule="evenodd"/><path fill="#000000" d="m268.75482 366.74588l22.614166 -22.614166l22.614166 22.614166l-22.614166 22.614197z" fill-rule="evenodd"/><path fill="#000000" d="m291.38223 344.11847l22.614166 -22.614166l22.614197 22.614166l-22.614197 22.614166z" fill-rule="evenodd"/><path fill="#000000" d="m314.00964 321.49106l22.614197 -22.614166l22.614166 22.614166l-22.614166 22.614166z" fill-rule="evenodd"/><path fill="#000000" d="m336.6371 298.86365l22.614166 -22.614197l22.614166 22.614197l-22.614166 22.614166z" fill-rule="evenodd"/><path fill="#000000" d="m359.2645 457.25555l22.614166 -22.614166l22.614166 22.614166l-22.614166 22.614166z" fill-rule="evenodd"/><path fill="#000000" d="m381.8919 434.62814l22.614166 -22.614166l22.614166 22.614166l-22.614166 22.614166z" fill-rule="evenodd"/><path fill="#000000" d="m404.51932 412.00073l22.614166 -22.614197l22.614197 22.614197l-22.614197 22.614166z" fill-rule="evenodd"/><path fill="#000000" d="m427.14673 389.3733l22.614197 -22.614166l22.614166 22.614166l-22.614166 22.614197z" fill-rule="evenodd"/><path fill="#000000" d="m314.00964 457.25555l22.614197 -22.614166l22.614166 22.614166l-22.614166 22.614166z" fill-rule="evenodd"/><path fill="#000000" d="m291.38223 434.62814l22.614166 -22.614166l22.614197 22.614166l-22.614197 22.614166z" fill-rule="evenodd"/><path fill="#000000" d="m268.75482 412.00073l22.614166 -22.614197l22.614166 22.614197l-22.614166 22.614166z" fill-rule="evenodd"/><path fill="#000000" d="m630.7935 140.47173l22.614136 -22.614182l22.614197 22.614182l-22.614197 22.614166z" fill-rule="evenodd"/><path fill="#000000" d="m608.1661 117.8443l22.614197 -22.614174l22.614136 22.614174l-22.614136 22.614182z" fill-rule="evenodd"/><path fill="#000000" d="m585.53864 95.21688l22.614197 -22.614166l22.614197 22.614166l-22.614197 22.614174z" fill-rule="evenodd"/><path fill="#000000" d="m585.53864 457.25555l22.614197 -22.614166l22.614197 22.614166l-22.614197 22.614166z" fill-rule="evenodd"/><path fill="#000000" d="m608.1661 434.62814l22.614197 -22.614166l22.614136 22.614166l-22.614136 22.614166z" fill-rule="evenodd"/><path fill="#000000" d="m630.7935 412.00073l22.614136 -22.614197l22.614197 22.614197l-22.614197 22.614166z" fill-rule="evenodd"/><path fill="#000000" d="m268.75482 140.47173l22.614166 -22.614182l22.614166 22.614182l-22.614166 22.614166z" fill-rule="evenodd"/><path fill="#000000" d="m291.38223 117.8443l22.614166 -22.614174l22.614197 22.614174l-22.614197 22.614182z" fill-rule="evenodd"/><path fill="#000000" d="m314.00964 95.21688l22.614197 -22.614166l22.614166 22.614166l-22.614166 22.614174z" fill-rule="evenodd"/><path fill="#000000" d="m449.77417 457.25555l22.614166 -22.614166l22.614166 22.614166l-22.614166 22.614166z" fill-rule="evenodd"/><path fill="#000000" d="m268.75482 276.2362l22.614166 -22.614166l22.614166 22.614166l-22.614166 22.614197z" fill-rule="evenodd"/><path fill="#000000" d="m449.77417 95.21688l22.614166 -22.614166l22.614166 22.614166l-22.614166 22.614174z" fill-rule="evenodd"/><path fill="#000000" d="m630.7935 276.2362l22.614136 -22.614166l22.614197 22.614166l-22.614197 22.614197z" fill-rule="evenodd"/></g></svg>